PathFileType	4	(X/Y/Z)	/Users/itak/Documents/Research/Walk-IL/dataset/trc/00545_00009.trc
DataRate	CameraRate	NumFrames	NumMarkers	Units	OrigDataRate	OrigDataStartFrame	OrigNumFrames
100.000000	100.000000	4	54	mm	100.000000	293	587
Frame#	Time	RPSI			LPSI			L3			STRN			T10			C7			CLAV			RBAK			LBAK			LSHO			LUPA			LAEL			LAOL			LWTS			LWPS			LFRA			LHPS			LHTS			RSHO			RUPA			RAEL			RAOL			RWTS			RWPS			RFRA			RIFD			RHTS			RHPS			RBHD			LFHD			RFHD			LBHD			LHIP			RHIP			RASI			LASI			LKNE			LTHI			LANK			LTIP			LTOE			LMT1			LMT5			LHEE			RKNE			RTHI			RANK			RTIP			RTOE			RMT1			RMT5			RHEE			LIFD			*53			
		X1	Y1	Z1	X2	Y2	Z2	X3	Y3	Z3	X4	Y4	Z4	X5	Y5	Z5	X6	Y6	Z6	X7	Y7	Z7	X8	Y8	Z8	X9	Y9	Z9	X10	Y10	Z10	X11	Y11	Z11	X12	Y12	Z12	X13	Y13	Z13	X14	Y14	Z14	X15	Y15	Z15	X16	Y16	Z16	X17	Y17	Z17	X18	Y18	Z18	X19	Y19	Z19	X20	Y20	Z20	X21	Y21	Z21	X22	Y22	Z22	X23	Y23	Z23	X24	Y24	Z24	X25	Y25	Z25	X26	Y26	Z26	X27	Y27	Z27	X28	Y28	Z28	X29	Y29	Z29	X30	Y30	Z30	X31	Y31	Z31	X32	Y32	Z32	X33	Y33	Z33	X34	Y34	Z34	X35	Y35	Z35	X36	Y36	Z36	X37	Y37	Z37	X38	Y38	Z38	X39	Y39	Z39	X40	Y40	Z40	X41	Y41	Z41	X42	Y42	Z42	X43	Y43	Z43	X44	Y44	Z44	X45	Y45	Z45	X46	Y46	Z46	X47	Y47	Z47	X48	Y48	Z48	X49	Y49	Z49	X50	Y50	Z50	X51	Y51	Z51	X52	Y52	Z52	X53	Y53	Z53	X54	Y54	Z54	

294	2.93	77.57084655761719	1010.613464355469	300.4447937011719	94.12834930419922	1015.270263671875	167.6242523193359	90.86434173583984	1109.052124023438	227.0910034179688	325.3100891113281	1298.834594726562	248.8556976318359	83.99956512451172	1234.14453125	220.1393432617188	130.5542907714844	1508.699829101562	232.700439453125	305.6650390625	1410.244995117188	246.2276306152344	51.96584701538086	1385.119262695312	310.0451354980469	107.0817489624023	1454.100830078125	138.6984710693359	215.0028533935547	1478.028442382812	71.16500091552734	225.5147399902344	1354.435546875	-10.79504108428955	281.3183288574219	1139.994750976562	-38.75448989868164	192.9087219238281	1113.428955078125	3.604582548141479	431.2923278808594	929.9188842773438	10.40070152282715	396.0383605957031	895.8466796875	-61.72109222412109	324.1187438964844	1062.225463867188	-45.40303802490234	420.8545227050781	841.2986450195312	-53.9276237487793	468.9518737792969	860.4093627929688	-9.243180274963379	170.7283935546875	1476.751831054688	394.4682006835938	139.1708374023438	1416.023193359375	459.4768981933594	96.95578002929688	1132.451293945312	508.8276672363281	44.69735717773438	1119.39306640625	474.6537780761719	221.8561096191406	904.6881713867188	493.8414001464844	166.1715393066406	887.9376831054688	551.9777221679688	102.2592849731445	1076.508056640625	518.6015625	226.4146728515625	732.2758178710938	503.5045166015625	243.2884979248047	812.8941650390625	515.8621826171875	180.1717834472656	813.172119140625	554.0077514648438	209.1930999755859	1689.296264648438	309.2970581054688	374.060791015625	1708.070434570312	184.0275115966797	349.4099426269531	1706.929931640625	326.5500793457031	246.4197387695312	1689.28759765625	148.3230895996094	236.9255828857422	941.6541748046875	49.59779357910156	192.1901397705078	943.3851928710938	432.8316650390625	281.8966369628906	977.8280029296875	384.7991333007812	309.2853393554688	969.0542602539062	110.5906753540039	298.7359008789062	500.8194885253906	142.1818084716797	286.0800476074219	663.9204711914062	95.71028137207031	206.8789825439453	33.76868057250977	157.8876800537109	237.3319091796875	250.7226715087891	143.806396484375	405.0042114257812	42.69507217407227	247.7082214355469	329.2724914550781	43.29049682617188	270.5291137695312	329.6537780761719	38.94229888916016	162.7091979980469	130.6428527832031	37.12545013427734	199.6530914306641	295.9834289550781	508.8412780761719	424.4267883300781	253.6404113769531	797.3832397460938	441.3991394042969	-5.16304874420166	127.9939346313477	391.4873352050781	237.2978973388672	374.5191955566406	413.6853332519531	196.6758728027344	54.22634887695312	400.4586486816406	149.0193786621094	67.40264892578125	345.8975830078125	104.6171264648438	77.03553771972656	440.7882080078125	-41.8311882019043	143.7102203369141	323.9648132324219	475.4260864257812	765.5752563476562	6.558864593505859	nan	nan	nan	
295	2.94	82.83517456054688	1010.880249023438	300.7966613769531	99.45710754394531	1015.5166015625	167.9439392089844	96.20716094970703	1109.530517578125	227.0570831298828	331.1391296386719	1298.89111328125	249.2327270507812	89.77857971191406	1234.565551757812	219.8426971435547	136.7730712890625	1509.021728515625	232.4988555908203	311.6683654785156	1410.336181640625	246.6932983398438	57.74441146850586	1385.517211914062	309.4764404296875	113.6069488525391	1454.484252929688	138.3361511230469	221.8981018066406	1478.410766601562	71.34171295166016	233.2254180908203	1354.965698242188	-10.61911773681641	290.7762145996094	1140.991821289062	-38.34496688842773	202.2045288085938	1113.566284179688	3.257065773010254	442.5869445800781	932.7591552734375	12.49625587463379	408.3212280273438	898.1439819335938	-59.79954147338867	334.4182739257812	1063.651489257812	-44.43860244750977	433.8312683105469	843.9104614257812	-51.74695205688477	481.1361694335938	863.6679077148438	-6.546036720275879	176.2934722900391	1476.98876953125	394.4171142578125	144.4110717773438	1416.187744140625	459.2451782226562	102.3078765869141	1132.583374023438	508.242919921875	50.05273818969727	1119.492309570312	473.9815979003906	227.5880432128906	905.0838012695312	493.4542541503906	171.7733917236328	888.158203125	551.3721923828125	107.6603546142578	1076.647216796875	517.9974975585938	232.5725708007812	732.766357421875	502.9505615234375	249.2260589599609	813.3419799804688	515.4108276367188	185.943359375	813.4387817382812	553.3713989257812	215.5607147216797	1689.46630859375	309.6664428710938	380.4701232910156	1708.221801757812	184.4649505615234	355.767333984375	1707.019775390625	326.93798828125	252.8086242675781	1689.489501953125	148.7186431884766	242.3836059570312	941.2578125	49.82669830322266	197.7065734863281	944.0447387695312	433.1038513183594	287.3126525878906	978.5238647460938	384.8901672363281	314.7371520996094	969.0415649414062	110.7759475708008	300.3052368164062	500.3182067871094	141.8935699462891	289.1485900878906	663.6168212890625	95.70420837402344	206.8247222900391	33.78141403198242	157.9025268554688	237.7745513916016	250.6192169189453	143.7433471679688	404.9500427246094	42.7941780090332	247.6324462890625	329.24462890625	43.31193161010742	270.5013732910156	329.5712585449219	39.01449203491211	162.7568359375	130.7308654785156	37.16605758666992	199.6580200195312	307.4963989257812	510.7360534667969	425.0566101074219	260.8726196289062	798.7671508789062	442.5417785644531	18.96599769592285	119.7934112548828	395.4741516113281	252.5762939453125	374.6493835449219	415.2028198242188	223.9717712402344	55.04563522338867	403.8579711914062	175.47265625	65.55617523193359	349.4347229003906	131.1484832763672	74.02648162841797	444.3084411621094	-18.84829139709473	133.4416961669922	328.1527404785156	488.7534790039062	768.9713745117188	9.403696060180664	nan	nan	nan	
296	2.95	88.09970092773438	1011.096923828125	301.1445007324219	104.7475662231445	1015.719909667969	168.2829742431641	101.5305786132812	1109.943115234375	227.075927734375	336.9421997070312	1298.8642578125	249.64306640625	95.53485870361328	1234.922241210938	219.6038208007812	143.0052185058594	1509.283203125	232.3486785888672	317.6631469726562	1410.342651367188	247.1843109130859	63.53359222412109	1385.858032226562	308.9879760742188	120.1002044677734	1454.798950195312	138.0491638183594	228.7606811523438	1478.711059570312	71.54491424560547	240.8424377441406	1355.420776367188	-10.40507221221924	300.0475158691406	1141.906494140625	-37.89868927001953	211.3147277832031	1113.63330078125	2.970994472503662	453.6460876464844	935.5576782226562	14.68904209136963	420.3820495605469	900.3922729492188	-57.75981140136719	344.5094299316406	1065.013916015625	-43.41023635864258	446.5826110839844	846.4771118164062	-49.42284393310547	493.1355590820312	866.9107055664062	-3.771861791610718	181.8998870849609	1477.157104492188	394.4188842773438	149.7134552001953	1416.276733398438	459.0692443847656	107.7201919555664	1132.630615234375	507.71435546875	55.5119514465332	1119.518676757812	473.3468933105469	233.2918548583984	905.3355712890625	493.0585632324219	177.3772277832031	888.2603759765625	550.7781982421875	113.094596862793	1076.7041015625	517.4523315429688	238.5814361572266	733.102294921875	502.3590393066406	255.0983276367188	813.64013671875	514.91650390625	191.6785125732422	813.5690307617188	552.7211303710938	221.9397888183594	1689.560791015625	310.0675659179688	386.8905029296875	1708.305053710938	184.9430999755859	362.0836791992188	1707.019409179688	327.3471069335938	259.2153625488281	1689.626586914062	149.1399688720703	247.8219604492188	940.8792114257812	50.1321907043457	203.2249603271484	944.6901245117188	433.4562377929688	292.6923217773438	979.1305541992188	384.9967041015625	320.1860046386719	969.0065307617188	111.0125274658203	301.9285278320312	499.8128967285156	141.6271209716797	292.2734375	663.2979125976562	95.73138427734375	206.7743072509766	33.78803253173828	157.9110412597656	238.2476654052734	250.5216522216797	143.6695709228516	404.9020080566406	42.88767623901367	247.5605163574219	329.2083435058594	43.33185958862305	270.4671630859375	329.4814453125	39.07080841064453	162.79150390625	130.8119049072266	37.19938278198242	199.6556091308594	318.8797302246094	512.64794921875	425.7250366210938	268.0169982910156	800.0944213867188	443.7039794921875	43.62978363037109	111.7641754150391	399.5230102539062	267.8988342285156	374.8315124511719	416.739501953125	251.3695678710938	56.04084396362305	406.8229370117188	202.0818481445312	63.99104690551758	352.6383361816406	158.0606994628906	71.16245269775391	447.6264038085938	4.677395820617676	123.4422760009766	332.4725036621094	501.8805236816406	772.3717651367188	12.38330364227295	nan	nan	nan	
297	2.96	93.37052154541016	1011.265563964844	301.4877014160156	110.0301513671875	1015.878540039062	168.6380310058594	106.8445281982422	1110.288330078125	227.1444244384766	342.7275085449219	1298.761108398438	250.0836639404297	101.2739562988281	1235.217529296875	219.4295043945312	149.2536010742188	1509.48388671875	232.2567596435547	323.6564025878906	1410.270141601562	247.6988983154297	69.337646484375	1386.141845703125	308.5898742675781	126.5678939819336	1455.046020507812	137.8372344970703	235.5855255126953	1478.928833007812	71.78005218505859	248.3641967773438	1355.794311523438	-10.14972686767578	309.1290588378906	1142.732299804688	-37.40860748291016	220.2412261962891	1113.629028320312	2.742083787918091	464.4584655761719	938.295166015625	16.9765567779541	432.2194519042969	902.5822143554688	-55.6163215637207	354.3927917480469	1066.305419921875	-42.32050323486328	459.0915832519531	848.9863891601562	-46.96674346923828	504.9319152832031	870.1181640625	-0.9286844730377197	187.5545806884766	1477.258911132812	394.4776611328125	155.0858764648438	1416.298217773438	458.9559936523438	113.1907424926758	1132.5947265625	507.2402648925781	61.0816650390625	1119.475341796875	472.7393188476562	238.9618225097656	905.448974609375	492.6689147949219	182.9730377197266	888.2501220703125	550.2044067382812	118.5568618774414	1076.68017578125	516.9641723632812	244.4418792724609	733.2796630859375	501.7426452636719	260.8836364746094	813.7869873046875	514.412353515625	197.3630828857422	813.5695190429688	552.0756225585938	228.3338928222656	1689.582641601562	310.4992980957031	393.3290100097656	1708.318237304688	185.4607849121094	368.3577575683594	1706.926635742188	327.7770385742188	265.6487426757812	1689.701171875	149.5859832763672	253.2267761230469	940.547119140625	50.49774551391602	208.7746429443359	945.3445434570312	433.9226684570312	298.0458374023438	979.649658203125	385.1146545410156	325.6291809082031	968.9443359375	111.2922134399414	303.6158142089844	499.3061828613281	141.3903503417969	295.4722900390625	662.9631958007812	95.78933715820312	206.728515625	33.79055023193359	157.9148559570312	238.7536773681641	250.4273986816406	143.5876617431641	404.8531188964844	42.96969604492188	247.4945373535156	329.1632690429688	43.3463134765625	270.4334106445312	329.3888854980469	39.10815048217773	162.8100433349609	130.8723754882812	37.21916198730469	199.6494140625	330.1121826171875	514.5796508789062	426.4489440917969	275.0341186523438	801.346923828125	444.8457336425781	68.77047729492188	104.0138092041016	403.5893859863281	283.2365112304688	375.0936889648438	418.3002624511719	278.7955322265625	57.26303863525391	409.4219055175781	228.7868194580078	62.76052093505859	355.5633850097656	185.2521820068359	68.5289306640625	450.7760314941406	28.69621086120605	113.7958831787109	336.8481750488281	514.7879638671875	775.7562866210938	15.47553443908691	nan	nan	nan	
